<svg aria-hidden="true" fill="none" viewBox="0 0 98 96" xmlns="http://www.w3.org/2000/svg">
  <path fill="#fff" fill-rule="evenodd" clip-rule="evenodd" d="M48.9 0C21.9 0 0 22 0 49.1c0 21.7 14 40.1 33.5 46.6 2.5.5 3.4-1.1 3.4-2.4 0-1.2-.1-5.3-.1-9.7-13.6 3-16.5-5.8-16.5-5.8-2.2-5.7-5.4-7.2-5.4-7.2-4.4-3 .3-3 .3-3 4.9.3 7.5 5.1 7.5 5.1 4.4 7.5 11.5 5.3 14.3 4.1.4-3.2 1.7-5.3 3.1-6.6-10.9-1.2-22.3-5.5-22.3-24.4 0-5.4 1.9-9.8 5.1-13.3-.5-1.2-2.2-6.3.5-13.1 0 0 4.1-1.3 13.5 5.1 3.9-1.1 8.1-1.6 12.3-1.6 4.2 0 8.4.6 12.3 1.6 9.4-6.4 13.5-5.1 13.5-5.1 2.7 6.8 1 11.9.5 13.1 3.2 3.5 5.1 7.9 5.1 13.3 0 18.9-11.5 23.1-22.4 24.4 1.8 1.5 3.3 4.5 3.3 9.1 0 6.6-.1 11.9-.1 13.5 0 1.3.9 2.9 3.4 2.4C83.9 89.2 98 70.8 98 49.1 98 22 76.1 0 48.9 0Z" />
</svg>
