<svg xmlns="http://www.w3.org/2000/svg" viewBox="0 0 512 512" role="img" aria-label="nipmod">
  <rect width="512" height="512" fill="#000000"/>
  <g transform="translate(88 72)">
    <path d="M151.5 36.2c14.2-8.1 31.7-8.3 46.1-.5l130.2 70.6c16 8.7 16.2 31.6.4 40.6l-130.7 74.3c-14.3 8.1-31.8 8.2-46.2.1L18.4 146.5c-16-9-15.8-32.1.2-40.9L151.5 36.2Z" fill="#202124"/>
    <path d="M220.5 240.7c0-8.4 4.5-16.2 11.8-20.3l118.8-67.3c15.6-8.8 35 .2 35 16.6v137.8c0 13.4-7.2 25.9-18.9 32.5l-111.7 63.3c-15.5 8.8-35-.1-35-16.4V240.7Z" fill="#252527"/>
    <path d="M0 171.6c0-17.5 18.8-28.6 34.1-20.2l142.6 79.1c12 6.7 19.4 19.3 19.4 33v135.2c0 13.6-14.7 22.2-26.6 15.5l-45.3-25.4c-6.4-3.6-10.4-10.4-10.4-17.8v-67.4c0-7.4-4-14.2-10.5-17.8l-38.7-21.4c-12.3-6.8-27.3 2.1-27.3 16.1v109.6c0 13.5-14.5 22-26.3 15.5l-11-6.1V171.6Z" fill="#ffffff"/>
    <path d="M113.8 303.6c0-7.4-4-14.2-10.5-17.8l-38.7-21.4c-12.3-6.8-27.3 2.1-27.3 16.1v109.6c0 13.5-14.5 22-26.3 15.5L0 399.5V171.6c0-17.5 18.8-28.6 34.1-20.2l142.6 79.1c12 6.7 19.4 19.3 19.4 33v135.2c0 13.6-14.7 22.2-26.6 15.5l-45.3-25.4c-6.4-3.6-10.4-10.4-10.4-17.8v-67.4Z" fill="#ffffff"/>
  </g>
</svg>
